<svg xmlns="http://www.w3.org/2000/svg" xmlns:xlink="http://www.w3.org/1999/xlink" width="1024" zoomAndPan="magnify" viewBox="0 0 768 767.999994" height="1024" preserveAspectRatio="xMidYMid meet" version="1.0"><defs><clipPath id="id1"><path d="M 23.242188 46 L 744.691406 46 L 744.691406 768 L 23.242188 768 Z M 23.242188 46 " clip-rule="nonzero"/></clipPath></defs><g clip-path="url(#id1)"><path fill="#212121" d="M 383.996094 46.378906 C 483.609375 46.378906 573.796875 86.765625 639.078125 152.058594 C 704.359375 217.351562 744.734375 307.554688 744.734375 407.1875 C 744.734375 506.816406 704.359375 597.019531 639.078125 662.324219 C 573.796875 727.617188 483.609375 768 383.996094 768 C 284.382812 768 194.183594 727.617188 128.902344 662.324219 C 63.617188 597.019531 23.242188 506.816406 23.242188 407.1875 C 23.242188 307.554688 63.617188 217.351562 128.902344 152.058594 C 194.183594 86.765625 284.382812 46.378906 383.996094 46.378906 Z M 612.230469 178.910156 C 553.816406 120.492188 473.128906 84.359375 383.996094 84.359375 C 294.859375 84.359375 214.164062 120.492188 155.75 178.910156 C 97.339844 237.335938 61.214844 318.035156 61.214844 407.1875 C 61.214844 496.335938 97.339844 577.046875 155.75 635.472656 C 214.164062 693.886719 294.859375 730.023438 383.996094 730.023438 C 473.128906 730.023438 553.816406 693.886719 612.222656 635.472656 C 670.636719 577.046875 706.765625 496.335938 706.765625 407.1875 C 706.765625 318.035156 670.636719 237.335938 612.230469 178.910156 " fill-opacity="1" fill-rule="nonzero"/></g><path fill="#212121" d="M 336.296875 438.480469 L 245.289062 252.78125 L 201.234375 162.875 L 275.03125 230.527344 L 427.460938 370.261719 L 430.117188 372.703125 L 431.691406 375.902344 L 522.691406 561.601562 L 566.753906 651.503906 L 492.945312 583.855469 L 340.527344 444.121094 L 337.863281 441.675781 Z M 323.320312 326.070312 L 368.699219 418.660156 L 444.660156 488.300781 L 399.28125 395.710938 L 323.320312 326.070312 " fill-opacity="1" fill-rule="nonzero"/><path fill="#212121" d="M 380.519531 394.234375 C 387.671875 392.3125 395.03125 396.5625 396.945312 403.71875 C 398.867188 410.875 394.617188 418.226562 387.460938 420.148438 C 380.304688 422.070312 372.945312 417.820312 371.035156 410.664062 C 369.113281 403.503906 373.363281 396.144531 380.519531 394.234375 " fill-opacity="1" fill-rule="evenodd"/><path fill="#212121" d="M 339.425781 123.1875 L 366.359375 123.1875 L 401.472656 164.519531 L 401.472656 123.1875 L 428.648438 123.1875 L 428.648438 197.898438 L 401.472656 197.898438 L 366.535156 156.886719 L 366.535156 197.898438 L 339.425781 197.898438 L 339.425781 123.1875 " fill-opacity="1" fill-rule="nonzero"/><path fill="#212121" d="M 398.972656 73.347656 L 398.972656 108.457031 L 369.101562 108.457031 L 369.101562 73.347656 L 398.972656 73.347656 " fill-opacity="1" fill-rule="nonzero"/><path fill="#212121" d="M 50.175781 392.175781 L 85.28125 392.175781 L 85.28125 422.050781 L 50.175781 422.050781 L 50.175781 392.175781 " fill-opacity="1" fill-rule="nonzero"/><path fill="#212121" d="M 398.972656 705.921875 L 398.972656 741.03125 L 369.101562 741.03125 L 369.101562 705.921875 L 398.972656 705.921875 " fill-opacity="1" fill-rule="nonzero"/><path fill="#212121" d="M 682.699219 392.175781 L 717.800781 392.175781 L 717.800781 422.050781 L 682.699219 422.050781 L 682.699219 392.175781 " fill-opacity="1" fill-rule="nonzero"/><path fill="#212121" d="M 100.324219 362.292969 L 122.238281 362.292969 L 130.136719 404.019531 L 141.648438 362.292969 L 163.511719 362.292969 L 175.082031 404.019531 L 182.972656 362.292969 L 204.785156 362.292969 L 188.332031 437.003906 L 165.703125 437.003906 L 152.609375 389.964844 L 139.5625 437.003906 L 116.9375 437.003906 L 100.324219 362.292969 " fill-opacity="1" fill-rule="nonzero"/><path fill="#212121" d="M 339.222656 660.882812 L 363.433594 659.289062 C 363.945312 663.425781 365.019531 666.5625 366.628906 668.738281 C 369.238281 672.242188 372.996094 673.980469 377.863281 673.980469 C 381.484375 673.980469 384.285156 673.09375 386.253906 671.304688 C 388.214844 669.507812 389.191406 667.433594 389.191406 665.074219 C 389.191406 662.835938 388.273438 660.828125 386.390625 659.058594 C 384.515625 657.28125 380.179688 655.609375 373.363281 654.035156 C 362.207031 651.398438 354.25 647.914062 349.5 643.546875 C 344.710938 639.171875 342.3125 633.617188 342.3125 626.847656 C 342.3125 622.394531 343.539062 618.183594 345.992188 614.242188 C 348.4375 610.292969 352.125 607.191406 357.050781 604.910156 C 361.976562 602.652344 368.714844 601.519531 377.292969 601.519531 C 387.808594 601.519531 395.84375 603.578125 401.359375 607.691406 C 406.882812 611.796875 410.15625 618.347656 411.207031 627.308594 L 387.230469 628.777344 C 386.601562 624.894531 385.257812 622.046875 383.210938 620.277344 C 381.175781 618.53125 378.363281 617.640625 374.773438 617.640625 C 371.808594 617.640625 369.585938 618.289062 368.089844 619.613281 C 366.59375 620.925781 365.839844 622.539062 365.839844 624.433594 C 365.839844 625.792969 366.457031 627.03125 367.683594 628.132812 C 368.890625 629.28125 371.730469 630.332031 376.230469 631.320312 C 387.34375 633.828125 395.300781 636.390625 400.113281 638.96875 C 404.921875 641.546875 408.4375 644.734375 410.617188 648.558594 C 412.800781 652.363281 413.910156 656.632812 413.910156 661.367188 C 413.910156 666.910156 412.433594 672.019531 409.519531 676.695312 C 406.609375 681.390625 402.527344 684.933594 397.28125 687.359375 C 392.046875 689.773438 385.433594 690.980469 377.457031 690.980469 C 363.472656 690.980469 353.765625 688.160156 348.386719 682.480469 C 342.980469 676.820312 339.929688 669.625 339.222656 660.882812 " fill-opacity="1" fill-rule="nonzero"/><path fill="#212121" d="M 593.253906 362.292969 L 668.125 362.292969 L 668.03125 381.6875 L 620.601562 381.6875 L 620.601562 395.894531 L 667.816406 395.894531 L 667.816406 414.109375 L 620.601562 414.109375 L 620.601562 431.699219 L 667.855469 431.699219 L 667.855469 451.945312 L 593.167969 451.945312 L 593.253906 362.292969 " fill-opacity="1" fill-rule="nonzero"/><path fill="#212121" d="M 221.9375 96.664062 L 221.9375 -1.3125 L 546.039062 -1.3125 L 546.039062 96.664062 L 508.070312 96.664062 L 508.070312 36.664062 L 259.910156 36.664062 L 259.910156 96.664062 L 221.9375 96.664062 " fill-opacity="1" fill-rule="nonzero"/><path fill="#212121" d="M 383.996094 -181.5 C 410.203125 -181.5 433.929688 -170.875 451.109375 -153.691406 C 468.292969 -136.507812 478.921875 -112.765625 478.921875 -86.554688 C 478.921875 -60.328125 468.292969 -36.597656 451.109375 -19.414062 C 433.929688 -2.222656 410.203125 8.402344 383.996094 8.402344 C 357.773438 8.402344 334.046875 -2.222656 316.867188 -19.414062 C 299.679688 -36.597656 289.054688 -60.328125 289.054688 -86.554688 C 289.054688 -112.765625 299.679688 -136.507812 316.867188 -153.691406 C 334.046875 -170.875 357.773438 -181.5 383.996094 -181.5 Z M 424.265625 -126.839844 C 413.960938 -137.144531 399.714844 -143.519531 383.996094 -143.519531 C 368.261719 -143.519531 354.019531 -137.144531 343.714844 -126.839844 C 333.410156 -116.523438 327.027344 -102.289062 327.027344 -86.554688 C 327.027344 -70.820312 333.410156 -56.574219 343.714844 -46.265625 C 354.019531 -35.960938 368.261719 -29.585938 383.996094 -29.585938 C 399.714844 -29.585938 413.960938 -35.960938 424.265625 -46.265625 C 434.578125 -56.574219 440.953125 -70.820312 440.953125 -86.554688 C 440.953125 -102.289062 434.578125 -116.523438 424.265625 -126.839844 " fill-opacity="1" fill-rule="nonzero"/></svg>