<svg xmlns="http://www.w3.org/2000/svg" xmlns:xlink="http://www.w3.org/1999/xlink" width="1024" zoomAndPan="magnify" viewBox="0 0 768 767.999994" height="1024" preserveAspectRatio="xMidYMid meet" version="1.0"><defs><clipPath id="id1"><path d="M 33.121094 106 L 371 106 L 371 160 L 33.121094 160 Z M 33.121094 106 " clip-rule="nonzero"/></clipPath></defs><path fill="#000000" d="M 263.660156 766.535156 L 504.582031 766.535156 L 384.121094 714.90625 Z M 263.660156 766.535156 " fill-opacity="1" fill-rule="nonzero"/><g clip-path="url(#id1)"><path fill="#000000" d="M 370.253906 106.992188 L 33.304688 106.992188 L 86.085938 159.753906 L 357.730469 159.753906 C 357.730469 140.792969 362.316406 122.914062 370.253906 106.992188 " fill-opacity="1" fill-rule="nonzero"/></g><path fill="#000000" d="M 389.324219 688.472656 L 397.316406 691.871094 L 397.316406 481.796875 L 393.449219 485.664062 C 390.871094 488.238281 387.523438 489.527344 384.121094 489.527344 C 380.71875 489.527344 377.367188 488.238281 374.789062 485.664062 L 370.925781 481.796875 L 370.925781 691.871094 L 378.914062 688.472656 C 382.265625 687.027344 385.976562 687.027344 389.324219 688.472656 " fill-opacity="1" fill-rule="nonzero"/><path fill="#000000" d="M 582.722656 106.992188 C 590.660156 122.914062 595.246094 140.792969 595.246094 159.753906 L 682.152344 159.753906 L 734.933594 106.992188 L 582.722656 106.992188 " fill-opacity="1" fill-rule="nonzero"/><path fill="#000000" d="M 318.140625 291.664062 L 291.75 291.664062 C 284.484375 291.664062 278.554688 285.738281 278.554688 278.472656 C 278.554688 271.207031 284.484375 265.28125 291.75 265.28125 L 318.140625 265.28125 C 325.410156 265.28125 331.339844 271.207031 331.339844 278.472656 C 331.339844 285.738281 325.410156 291.664062 318.140625 291.664062 Z M 238.96875 238.902344 C 238.96875 231.636719 244.898438 225.710938 252.164062 225.710938 L 278.554688 225.710938 C 285.824219 225.710938 291.75 231.636719 291.75 238.902344 C 291.75 246.164062 285.824219 252.089844 278.554688 252.089844 L 252.164062 252.089844 C 244.898438 252.089844 238.96875 246.164062 238.96875 238.902344 Z M 476.488281 278.472656 C 420.097656 278.472656 372.832031 238.953125 360.769531 186.136719 L 112.476562 186.136719 L 384.121094 457.683594 L 655.761719 186.136719 L 592.207031 186.136719 C 580.144531 238.953125 532.878906 278.472656 476.488281 278.472656 " fill-opacity="1" fill-rule="nonzero"/><path fill="#000000" d="M 621.640625 1.464844 C 574.734375 1.464844 534.21875 31.917969 514.941406 75.871094 C 523.136719 79.632812 530.660156 84.527344 537.363281 90.398438 C 551.796875 53.609375 584.113281 27.847656 621.640625 27.847656 C 628.90625 27.847656 634.835938 21.921875 634.835938 14.65625 C 634.835938 7.390625 628.90625 1.464844 621.640625 1.464844 " fill-opacity="1" fill-rule="nonzero"/><path fill="#000000" d="M 537.363281 90.398438 C 532.207031 103.539062 529.269531 118.070312 529.269531 133.375 C 529.269531 140.640625 523.34375 146.566406 516.074219 146.566406 C 508.808594 146.566406 502.878906 140.640625 502.878906 133.375 C 502.878906 112.710938 507.3125 93.285156 514.941406 75.871094 C 503.1875 70.511719 490.199219 67.417969 476.488281 67.417969 C 425.457031 67.417969 384.121094 108.742188 384.121094 159.753906 C 384.121094 210.765625 425.457031 252.089844 476.488281 252.089844 C 527.519531 252.089844 568.855469 210.765625 568.855469 159.753906 C 568.855469 132.085938 556.640625 107.351562 537.363281 90.398438 " fill-opacity="1" fill-rule="nonzero"/></svg>