<svg xmlns="http://www.w3.org/2000/svg" xmlns:xlink="http://www.w3.org/1999/xlink" width="1024" zoomAndPan="magnify" viewBox="0 0 768 767.999994" height="1024" preserveAspectRatio="xMidYMid meet" version="1.0"><defs><clipPath id="id1"><path d="M 442.050781 387.300781 L 509.488281 387.300781 L 509.488281 767.832031 L 442.050781 767.832031 Z M 442.050781 387.300781 " clip-rule="nonzero"/></clipPath><clipPath id="id2"><path d="M 258.238281 52 L 373 52 L 373 315 L 258.238281 315 Z M 258.238281 52 " clip-rule="nonzero"/></clipPath><clipPath id="id3"><path d="M 279 302.03125 L 351.746094 302.03125 L 351.746094 767.832031 L 279 767.832031 Z M 279 302.03125 " clip-rule="nonzero"/></clipPath></defs><g clip-path="url(#id1)"><path fill="#131110" d="M 476.097656 767.832031 C 457.351562 767.832031 442.269531 752.394531 442.691406 733.632812 L 459.007812 387.902344 L 499.164062 387.902344 L 509.503906 733.632812 C 509.925781 752.394531 494.84375 767.832031 476.097656 767.832031 " fill-opacity="1" fill-rule="nonzero"/></g><path fill="#131110" d="M 499.164062 387.902344 L 434.835938 387.902344 C 426.585938 387.902344 419.898438 381.207031 419.898438 372.949219 L 419.898438 169.433594 C 419.898438 104.445312 448.695312 42.8125 498.519531 1.148438 C 499.785156 0.0898438 501.710938 1.003906 501.703125 2.648438 L 499.164062 387.902344 " fill-opacity="1" fill-rule="nonzero"/><g clip-path="url(#id2)"><path fill="#131110" d="M 372.148438 245.941406 C 372.148438 283.738281 346.648438 314.363281 315.195312 314.363281 C 283.734375 314.363281 258.238281 283.738281 258.238281 245.941406 L 268.796875 54.261719 C 268.867188 53.042969 269.875 52.082031 271.101562 52.082031 L 271.53125 52.082031 C 272.773438 52.082031 273.792969 53.070312 273.832031 54.3125 L 279.597656 225.550781 C 279.597656 229.046875 281.960938 231.882812 284.867188 231.882812 C 287.78125 231.882812 290.144531 229.046875 290.144531 225.550781 L 288.738281 54.410156 C 288.726562 53.128906 289.761719 52.082031 291.042969 52.082031 L 291.605469 52.082031 C 292.847656 52.082031 293.871094 53.070312 293.910156 54.3125 L 299.53125 225.550781 C 299.53125 229.046875 301.894531 231.882812 304.804688 231.882812 C 307.714844 231.882812 310.078125 229.046875 310.078125 225.550781 L 312.246094 54.992188 C 312.265625 53.382812 313.578125 52.082031 315.191406 52.082031 C 316.804688 52.082031 318.113281 53.382812 318.136719 54.992188 L 320.304688 225.550781 C 320.304688 229.046875 322.664062 231.882812 325.578125 231.882812 L 325.585938 231.882812 C 328.496094 231.882812 330.855469 229.046875 330.855469 225.550781 L 336.476562 54.3125 C 336.519531 53.070312 337.539062 52.082031 338.78125 52.082031 L 339.339844 52.082031 C 340.621094 52.082031 341.65625 53.128906 341.644531 54.410156 L 340.242188 225.550781 C 340.242188 229.046875 342.601562 231.882812 345.511719 231.882812 L 345.519531 231.882812 C 348.429688 231.882812 350.789062 229.046875 350.789062 225.550781 L 356.554688 54.3125 C 356.597656 53.070312 357.617188 52.082031 358.859375 52.082031 L 359.289062 52.082031 C 360.511719 52.082031 361.523438 53.042969 361.589844 54.261719 L 372.148438 245.941406 " fill-opacity="1" fill-rule="nonzero"/></g><g clip-path="url(#id3)"><path fill="#131110" d="M 334.890625 302.582031 L 295.496094 302.582031 L 279.238281 731.019531 C 278.785156 751.214844 295.011719 767.832031 315.195312 767.832031 C 335.375 767.832031 351.605469 751.214844 351.152344 731.019531 L 334.890625 302.582031 " fill-opacity="1" fill-rule="nonzero"/></g></svg>